<?xml version="1.0" standalone="no"?>
<!DOCTYPE svg PUBLIC "-//W3C//DTD SVG 20010904//EN"
 "http://www.w3.org/TR/2001/REC-SVG-20010904/DTD/svg10.dtd">
<svg version="1.0" xmlns="http://www.w3.org/2000/svg"
 width="300.000000pt" height="300.000000pt" viewBox="0 0 300.000000 300.000000"
 preserveAspectRatio="xMidYMid meet">
<metadata>
Created by potrace 1.10, written by Peter Selinger 2001-2011
</metadata>
<g transform="translate(0.000000,300.000000) scale(0.100000,-0.100000)"
fill="#000000" stroke="none">
<path d="M1115 2229 c-111 -7 -167 -14 -182 -25 l-23 -14 0 -700 c0 -622 2
-700 16 -714 13 -13 44 -16 183 -16 150 0 170 2 184 18 15 16 17 49 17 250 l0
232 29 0 c27 0 39 -16 172 -226 79 -124 156 -236 172 -250 28 -23 33 -24 201
-24 155 0 175 2 189 18 10 10 17 27 17 38 0 17 -177 310 -261 432 -16 23 -29
44 -29 46 0 2 12 7 26 10 74 19 151 95 183 182 41 109 46 333 11 465 -39 143
-121 220 -286 265 -74 20 -388 27 -619 13z m531 -70 c221 -31 306 -121 323
-345 9 -121 -3 -251 -30 -313 -28 -67 -87 -117 -162 -139 -36 -11 -59 -24 -63
-35 -4 -12 43 -96 145 -257 l150 -240 -139 0 c-138 0 -139 0 -159 26 -12 15
-85 128 -163 251 l-141 224 -81 -3 -81 -3 -3 -248 -2 -247 -130 0 -130 0 0
660 0 660 33 1 c17 1 82 5 142 9 178 11 408 11 491 -1z"/>
<path d="M1247 1943 c-4 -3 -7 -100 -7 -213 0 -154 3 -210 13 -217 16 -13 284
-7 338 7 82 22 119 87 119 205 0 121 -37 184 -123 210 -52 15 -326 22 -340 8z
m323 -76 c46 -16 70 -63 70 -140 0 -32 -6 -73 -14 -92 -19 -43 -54 -54 -203
-57 l-113 -3 0 152 0 153 113 -1 c61 0 128 -5 147 -12z"/>
</g>
</svg>
